<svg width="40" height="45" viewBox="0 0 40 45" fill="none" xmlns="http://www.w3.org/2000/svg">
<path d="M19.4863 1.45832C19.7224 1.34918 19.9255 1.25392 20.0901 1.1761C20.2362 1.25089 20.4132 1.34069 20.6168 1.44261C21.2385 1.75386 22.1103 2.17912 23.1121 2.63582C25.0981 3.54124 27.6596 4.60041 29.8037 5.11695C31.7717 5.59106 34.3048 5.82886 36.3036 5.95062C37.3118 6.01203 38.2007 6.04481 38.8378 6.06225C38.8528 6.06266 38.8676 6.06306 38.8822 6.06345C38.8948 6.32989 38.9076 6.64891 38.9185 7.01592C38.9549 8.24139 38.9699 10.0001 38.8837 12.121C38.711 16.3685 38.1333 22.0419 36.5221 27.786C34.98 33.2839 30.8627 37.1375 27.017 39.6447C25.1042 40.8919 23.2878 41.7863 21.9503 42.3683C21.2824 42.659 20.7362 42.8707 20.3601 43.0088C20.1932 43.0701 20.06 43.1168 19.9646 43.1494C19.9233 43.1461 19.8739 43.1414 19.8166 43.1351C19.5929 43.1102 19.2497 43.0586 18.8078 42.9518C17.9248 42.7384 16.6436 42.3036 15.128 41.4164C12.1061 39.6473 8.08738 36.0406 4.44437 28.6572C2.3193 24.3502 1.4795 18.5018 1.1889 13.6361C1.04465 11.2209 1.03732 9.08177 1.0661 7.54719C1.07737 6.94632 1.09416 6.43885 1.11037 6.0446C1.70671 6.01782 2.53615 5.974 3.47698 5.90556C5.35356 5.76907 7.72707 5.53107 9.57612 5.12129C11.8685 4.61325 14.6313 3.55831 16.7831 2.65212C17.8674 2.19551 18.8122 1.76992 19.4863 1.45832Z" stroke="white" stroke-width="2.10527"/>
<path d="M14.0559 28.135C13.1556 28.135 12.3229 27.9887 11.5576 27.6962C10.8037 27.3923 10.1453 26.9703 9.58266 26.4301C9.03125 25.8787 8.59799 25.2373 8.28289 24.5058C7.9678 23.7743 7.81025 22.9697 7.81025 22.0919C7.81025 21.2142 7.9678 20.4096 8.28289 19.6781C8.59799 18.9466 9.03687 18.3108 9.59954 17.7706C10.1622 17.2192 10.8205 16.7972 11.5745 16.5046C12.3398 16.2008 13.1725 16.0488 14.0728 16.0488C14.9843 16.0488 15.8227 16.2064 16.5879 16.5215C17.3644 16.8253 18.0227 17.2811 18.5629 17.8888L17.4657 18.9522C17.0156 18.4796 16.5092 18.1307 15.9465 17.9057C15.3838 17.6693 14.7818 17.5512 14.1403 17.5512C13.4764 17.5512 12.8574 17.6637 12.2835 17.8888C11.7208 18.1139 11.2313 18.4289 10.8149 18.8341C10.3985 19.2392 10.0722 19.7231 9.83587 20.2858C9.6108 20.8372 9.49826 21.4392 9.49826 22.0919C9.49826 22.7446 9.6108 23.3523 9.83587 23.915C10.0722 24.4664 10.3985 24.9447 10.8149 25.3498C11.2313 25.7549 11.7208 26.07 12.2835 26.2951C12.8574 26.5202 13.4764 26.6327 14.1403 26.6327C14.7818 26.6327 15.3838 26.5202 15.9465 26.2951C16.5092 26.0588 17.0156 25.6987 17.4657 25.2148L18.5629 26.2782C18.0227 26.8859 17.3644 27.3473 16.5879 27.6624C15.8227 27.9775 14.9787 28.135 14.0559 28.135ZM20.971 28V16.1839H25.9506C27.211 16.1839 28.3195 16.4315 29.276 16.9266C30.2438 17.4218 30.9922 18.1139 31.5211 19.0029C32.0612 19.8919 32.3313 20.9216 32.3313 22.0919C32.3313 23.2623 32.0612 24.292 31.5211 25.181C30.9922 26.07 30.2438 26.7621 29.276 27.2573C28.3195 27.7524 27.211 28 25.9506 28H20.971ZM22.659 26.5314H25.8493C26.8284 26.5314 27.6724 26.3457 28.3814 25.9744C29.1016 25.603 29.6586 25.0854 30.0525 24.4214C30.4464 23.7462 30.6433 22.9697 30.6433 22.0919C30.6433 21.2029 30.4464 20.4264 30.0525 19.7625C29.6586 19.0985 29.1016 18.5809 28.3814 18.2095C27.6724 17.8381 26.8284 17.6525 25.8493 17.6525H22.659V26.5314Z" fill="white"/>
<circle cx="25.9158" cy="21.9158" r="0.915827" fill="white"/>
<path d="M26.4688 21.4579L28.4836 21V22.8317L26.4688 22.3737V21.4579Z" fill="white"/>
</svg>
